<?xml version="1.0" encoding="UTF-8" standalone="no"?>
<svg
   xmlns:dc="http://purl.org/dc/elements/1.1/"
   xmlns:cc="http://creativecommons.org/ns#"
   xmlns:rdf="http://www.w3.org/1999/02/22-rdf-syntax-ns#"
   xmlns:svg="http://www.w3.org/2000/svg"
   xmlns="http://www.w3.org/2000/svg"
   width="210mm"
   height="210mm"
   viewBox="0 0 210 210"
   version="1.1"
   id="svg8">
  <defs
     id="defs2">
    <clipPath
       clipPathUnits="userSpaceOnUse"
       id="clipPath3636">
      <rect
         style="display:inline;opacity:1;fill:#000000;stroke-width:4.0252;stroke-linecap:round;stroke-linejoin:round"
         id="rect3638"
         width="69.143562"
         height="69.590446"
         x="-71.926117"
         y="4.8343649"
         transform="scale(-1,1)" />
    </clipPath>
  </defs>
  <metadata
     id="metadata5">
    <rdf:RDF>
      <cc:Work
         rdf:about="">
        <dc:format>image/svg+xml</dc:format>
        <dc:type
           rdf:resource="http://purl.org/dc/dcmitype/StillImage" />
        <dc:title></dc:title>
      </cc:Work>
    </rdf:RDF>
  </metadata>
  <g
     id="layer1">
    <g
       id="g3567"
       transform="matrix(3.0128434,0,0,3.0128434,-8.2763561,-14.397743)"
       clip-path="url(#clipPath3636)"
       style="display:inline;stroke-width:0.0878187">
      <path
         style="display:inline;opacity:1;fill:#000000;fill-opacity:1;fill-rule:nonzero;stroke:none;stroke-width:1.64795;stroke-linecap:round;stroke-linejoin:round;stroke-miterlimit:4;stroke-dasharray:none;stroke-opacity:1;paint-order:normal"
         d="M 75.123047,3.4921875 V 74.798828 H 334.83008 V 3.4921875 Z M 35.583984,5.6582031 A 34.103001,34.10305 0 0 0 3.2695312,39.697266 34.103001,34.10305 0 0 0 35.583984,73.710938 Z m 3.578125,0.027344 V 46.613281 H 70.744141 A 34.103001,34.10305 0 0 0 71.476562,39.697266 34.103001,34.10305 0 0 0 39.162109,5.6855471 Z M 229.50977,10.402344 h 14.83984 v 50.335937 h -14.83984 z m -64.71875,2.857422 h 14.90625 v 7.630859 H 164.79102 Z M 85.376953,26.277344 h 13.59375 V 60.738281 C 85.496422,59.188142 85.376953,49.171875 85.376953,49.171875 Z m 16.097657,0 h 14.9043 v 34.460937 h -14.9043 z m 21.96484,0 h 14.83985 v 34.460937 h -14.83985 z m 41.35157,0 h 14.90625 v 34.460937 h -14.90625 z m -24.32422,0.01172 a 16.658957,16.659199 0 0 1 16.6582,16.660157 h -16.6582 z m 127.30078,0.09375 v 34.298829 a 17.187113,17.187138 0 0 1 -16.28516,-17.142579 17.187113,17.187138 0 0 1 16.28516,-17.15625 z m -63.42578,0.01758 v 34.263671 a 17.187112,17.187137 0 0 1 -15.92774,-17.125 17.187112,17.187137 0 0 1 15.92774,-17.138671 z m 2.33984,0.0059 a 17.187112,17.187137 0 0 1 16.10742,17.132812 17.187112,17.187137 0 0 1 -0.30078,3.09961 H 206.68164 Z M 270,26.417969 a 17.187113,17.187138 0 0 1 15.85742,17.121093 17.187113,17.187138 0 0 1 -0.29101,3.09961 H 270 Z m 37.72656,0.296875 v 34.3125 A 17.187112,17.187137 0 0 1 291.2793,43.876953 17.187112,17.187137 0 0 1 307.72656,26.714844 Z m 2.22071,0.04883 a 17.187112,17.187137 0 0 1 12.1914,6.742187 h -12.1914 z M 206.68164,48.707031 h 15.30859 A 17.187112,17.187137 0 0 1 206.68164,60.6875 Z m 63.31836,0 h 15.05078 A 17.187113,17.187138 0 0 1 270,60.669922 Z M 39.162109,49.953125 V 73.736328 A 34.103001,34.10305 0 0 0 69.873047,49.953125 Z m 270.785161,2.558594 h 13.34961 a 17.187112,17.187137 0 0 1 -13.34961,8.478515 z"
         id="rect897" />
    </g>
  </g>
</svg>
